<?xml version="1.0" encoding="UTF-8"?>
<svg id="Layer_1" data-name="Layer 1" xmlns="http://www.w3.org/2000/svg" viewBox="0 0 1600 1200">
  <defs>
    <style>
      .cls-1 {
        fill: #fff;
      }

      .cls-2 {
        fill: #eae8da;
      }

      .cls-3 {
        fill: #1ab479;
      }

      .cls-4 {
        fill: #d5a246;
      }

      .cls-5 {
        fill: #d5624c;
      }

      .cls-6 {
        fill: #1d9a68;
      }

      .cls-7 {
        fill: #f6efdc;
      }

      .cls-8 {
        fill: #982039;
      }

      .cls-9 {
        fill: #f48a71;
      }

      .cls-10 {
        fill: #fdbd10;
      }

      .cls-11 {
        fill: #4978a4;
      }

      .cls-12 {
        fill: #6791b6;
      }
    </style>
  </defs>
  <rect class="cls-7" width="1600" height="1200"/>
  <g>
    <path class="cls-3" d="M434.135,544.7137s3.9665-23.3616,14.9688-30.6971c8.0615-5.3747,22.4878-7.6005,24.4475,5.3923.5488,3.6389-.5109,7.415-2.5119,10.5035-2.3216,3.5834-6.0535,6.772-10.0176,8.4002-12.8354,5.2717-26.8869,6.4012-26.8869,6.4012Z"/>
    <path class="cls-3" d="M391.9555,585.2366c-.0005-.0012-8.9413-22.714-2.0649-31.6533,2.7839-3.6188,7.5987-7.1149,12.4096-5.6595,7.3451,2.2219,7.0509,12.1909,4.8243,17.9202-1.7326,4.4582-4.7651,7.9146-7.9989,11.3392-.775.8208-7.5872,6.9937-7.1701,8.0533Z"/>
    <path class="cls-3" d="M420.3972,517.1428s22.2097-20.6306,24.7309-37.8208c1.3445-9.167-.7165-19.3344-8.9752-24.6505-8.2835-5.332-19.9845-4.1481-25.7934,4.2579-3.2513,4.705-4.3108,10.6611-3.9486,16.3687.4525,7.1329,2.7855,14.4848,4.9968,21.2289.6386,1.9475,8.9944,20.6111,8.9895,20.6157Z"/>
    <path class="cls-3" d="M359.2178,566.7152s-8.5215-22.5285-24.7949-24.3621c-16.2734-1.8336-15.3566,18.2402-4.1257,24.3621,11.231,6.1219,28.9206,0,28.9206,0Z"/>
    <path class="cls-3" d="M367.5609,536.4464c-.2404-.1819,3.966-14.1898,4.3402-15.7663,2.4187-10.187,4.2372-21.0838,1.3219-31.3819-3.1723-11.2059-17.6944-23.3389-29.5263-15.9015-11.7112,7.3617-10.0384,23.4938-4.2557,33.9927,6.5473,11.8872,17.4583,20.9925,28.1198,29.0569Z"/>
    <path d="M460.2631,525.0682c-.2793-.3744-.8103-.4521-1.1847-.1711l-41.4037,30.9712c2.7957-30.6228,5.4385-59.0223,6.2909-66.4799.0529-.4644-.2806-.8834-.7446-.9363-.4599-.0578-.8839.2793-.9372.7446-2.0408,17.8531-14.3181,155.4549-14.4421,156.8425-.0413.4653.3021.8768.7677.9181.0256.0025.0508.0033.076.0033.4335,0,.8029-.3314.8421-.771.0707-.7937,4.1175-46.1487,7.9501-88.1642.1144-.025.2265-.0652.3264-.1401l42.2882-31.6328c.374-.2802.4504-.8107.1707-1.1843Z"/>
    <path d="M399.8412,640.5154l-11.3607-37.7668,8.6488-34.8414c.1124-.4537-.164-.9132-.6177-1.0256-.4516-.1099-.9124.1636-1.0252.6173l-7.9615,32.0728-6.4498-21.4415s0-.0002,0-.0002l-22.1849-73.7503c-.1343-.4479-.607-.6975-1.0541-.5669-.4475.1347-.7012.6066-.5665,1.0545l21.5829,71.7491-36.7997-20.3707c-.4091-.2264-.9231-.0777-1.1504.3306-.2264.4091-.0781.9239.3306,1.1504l38.3178,21.2111,18.6699,62.0654c.1099.3661.4463.6025.8099.6025.081,0,.1628-.0116.2442-.0355.4475-.1347.7012-.6066.5665-1.0545Z"/>
    <polygon class="cls-11" points="431.0042 737.6293 372.4333 737.6293 366.0391 632.2872 437.3985 632.2872 431.0042 737.6293"/>
    <rect class="cls-11" x="356.6502" y="625.957" width="90.1371" height="14.1644"/>
    <path d="M446.7871,641.1211h-90.1367c-.5522,0-1-.4473-1-1s.4478-1,1-1h90.1367c.5522,0,1,.4473,1,1s-.4478,1-1,1Z"/>
    <g>
      <path class="cls-8" d="M353.6588,739.9894l-47.1265,216.2584c-.7574,3.4754,1.8898,6.7616,5.4468,6.7616h2.9537c2.4705,0,4.6464-1.626,5.3463-3.9954l64.6998-219.0246h-31.32Z"/>
      <path class="cls-8" d="M449.7788,739.9894l47.1265,216.2584c.7574,3.4754-1.8898,6.7616-5.4468,6.7616h-2.9537c-2.4705,0-4.6464-1.626-5.3463-3.9954l-64.6998-219.0246h31.32Z"/>
    </g>
    <rect class="cls-8" x="320.7188" y="735.2958" width="162" height="19.2736" rx="7.9707" ry="7.9707"/>
    <rect class="cls-8" x="315.3188" y="837.7294" width="172.8" height="8.64" rx="4.32" ry="4.32"/>
    <path d="M474.748,755.5693h-146.0586c-.5522,0-1-.4473-1-1s.4478-1,1-1h146.0586c.5522,0,1,.4473,1,1s-.4478,1-1,1Z"/>
    <path d="M474.748,847.3691h-146.0586c-.5522,0-1-.4473-1-1s.4478-1,1-1h146.0586c.5522,0,1,.4473,1,1s-.4478,1-1,1Z"/>
  </g>
  <g>
    <polygon points="572.9688 203.4233 554.3022 137.916 524.8906 200.9751 522.1719 199.7065 554.9829 129.3584 575.8535 202.6011 572.9688 203.4233"/>
    <rect class="cls-2" x="472.7404" y="200.0582" width="152.5246" height="152.5246"/>
    <g>
      <path d="M565.1213,260.1474s-2.8568-3.3919-1.719-3.973,2.3001.9962,2.3001.9962c0,0-1.3282-5.3763,0-5.8427s1.9924,3.4353,1.9924,3.4353c0,0,2.714-4.1508,3.8207-3.1546s2.0087,2.9055,2.0087,2.9055"/>
      <path d="M563.4023,265.7097s10.7103,36.891,21.8655,39.76c11.1551,2.8691-6.1941-23.1427-6.4294-24.7253"/>
      <path d="M575.9434,252.8339s37.1602,9.7351,40.322,20.8108c3.1618,11.0757-23.2978-5.5825-24.886-5.7761"/>
      <path class="cls-11" d="M624.9576,299.8719c-16.1617-7.7524-28.2521-19.9443-28.2521-19.9443l-5.5076,5.6545s14.092,12.6677,22.0523,30.5864c5.6385,12.6921,5.7722,22.6624,11.7075,30.2654v-46.562Z"/>
      <path d="M591.1978,285.5822l3.376,3.3427s3.8172-6.0328,2.1316-8.9973-2.826-2.2794-2.3467-2.2857-3.1609,7.9403-3.1609,7.9403Z"/>
      <path class="cls-11" d="M597.8477,282.9324l-3.6452,3.7425c-4.1793,4.2909-11.7184,5.0448-16.0093.8654l-6.0237-7.1856-7.0211-6.8385c-5.3243-5.1859-3.0193-11.4911,2.1666-16.8154h0c5.1859-5.3244,11.2889-7.6517,16.6133-2.4657l6.8581,6.6798,7.6566,6.4874c4.2909,4.1793,3.584,11.2393-.5954,15.5302Z"/>
      <circle cx="574.3785" cy="268.628" r=".8544"/>
      <circle cx="579.3503" cy="263.5235" r=".8544"/>
      <path d="M570.6729,269.2871c-.3691,0-.688-.2739-.7329-.6494-.0127-.1069-.2881-2.644,1.9722-4.4131.3218-.2515.7866-.1953,1.0386.1265s.1953.7866-.1265,1.0386c-1.5884,1.2437-1.4219,3.0029-1.4141,3.0771.0425.4043-.2485.77-.6528.8159-.0283.0029-.0566.0044-.0845.0044Z"/>
      <path d="M575.1553,262.6851c-.1533,0-.3076-.0479-.4404-.146-.3281-.2432-.397-.7065-.1533-1.0352,1.7095-2.3047,4.2544-2.0962,4.3594-2.0874.4072.0381.7061.3984.6685.8052-.0381.4062-.4048.71-.8013.6689-.0894-.0063-1.8418-.1182-3.0381,1.4951-.145.1958-.3687.2988-.5947.2993Z"/>
      <ellipse cx="585.1894" cy="274.2239" rx="5.6581" ry="3.7628" transform="translate(-19.5593 502.0931) rotate(-45.7545)"/>
      <path class="cls-11" d="M624.9576,325.5685l-18.5023-21.7244s3.146,23.3313,13.1474,31.3982c2.2574,1.8207,4.0015,3.2273,5.3549,4.3188v-13.9927Z"/>
      <path class="cls-11" d="M624.9576,296.6106c-5.5135-1.2814-9.7592-1.7429-9.7592-1.7429l9.7592,7.8778v-6.1349Z"/>
      <path class="cls-5" d="M598.1442,292.8661s3.8715-1.8486,5.7802-6.5511c.7658.6161,1.8546,1.4755,1.8546,1.4755,0,0,.3872,2.2406-6.1086,6.885-.8843-1.0081-1.5262-1.8095-1.5262-1.8095Z"/>
      <g>
        <path class="cls-5" d="M592.5993,281.1931s5.4092,2.2354,7.5783.6844c.5882-.4208.9592-1.0335.6049-1.744-.158-.3168-.4163-.5721-.6897-.7969-2.0499-1.6858-4.7449-1.4874-7.2201-1.1846"/>
        <path d="M598.1543,280.4111c-.0073,0-.0146-.0005-.0225-.001-1.998-.145-5.0444-.3477-5.251-.355-.166.0186-.3052-.1279-.3086-.2939-.0039-.1655.1245-.3037.29-.3086.0039-.0005.0083-.0005.0132-.0005.3643,0,4.4707.2964,5.3003.3564.166.0122.291.1562.2788.3228-.0112.1587-.1436.2798-.3003.2798Z"/>
      </g>
      <path d="M590.7305,283.356c-.1255,0-.2471-.0688-.3081-.189-.0864-.1694-.019-.3774.1504-.4648.1011-.0522,2.4707-1.314,1.9287-4.6987-.0303-.1885.0981-.3662.2866-.396.1899-.0361.3662.0981.396.2866.625,3.897-2.2686,5.4102-2.2979,5.4248-.0503.0254-.103.0371-.1558.0371Z"/>
    </g>
    <path class="cls-9" d="M549.4758,352.6863c.6041-8.5553.1776-17.677-2.5191-24.472-7.2409-18.2452-67.4633-16.7073-74.2792-7.4156v31.8877h76.7983Z"/>
    <path class="cls-9" d="M529.8328,308.6464c-1.5599-.9942-3.1038-1.8155-4.6077-2.5017.0732-3.046.7324-6.8599,2.5614-11.4368l-12.0639-2.5111s-1.1413,6.1356-3.4922,10.7153c-2.3199-.1194-3.723.0637-3.723.0637,0,0-3.3997,5.1212,1.6677,8.1899,1.4172.8582,4.4416,1.5886,7.8219,2.0423l.9198.1915c.5244.1092,1.0416.128,1.544.0838,8.1307.7313,16.5764-.2448,9.372-4.8368Z"/>
    <path d="M517.3429,296.7252s2.7677,6.3539,7.9635,7.9031c0,0,.5676-4.3819,1.141-6.2765l-9.1045-1.6266Z"/>
    <path d="M510.6282,273.7707s-3.8753-8.7545-2.072-13.0829c1.8033-4.3284,5.0097-4.1476,5.0097-4.1476,0,0-1.3155-3.0312,1.1713-6.4064s15.7259-7.7563,26.6371,10.735c0,0,9.0381,2.9447.7227,16.9832l-3.2194,3.5831-28.2495-7.6644Z"/>
    <path class="cls-9" d="M543.7295,282.7153c-.9319,1.6849-2.8779,2.3972-4.3884,1.6232-2.8075,9.7649-10.891,16.1743-18.7635,14.5356-7.8812-1.6405-12.7374-10.7568-11.4041-20.8421-1.6938.107-3.1897-1.3217-3.3719-3.2385-.1846-1.9488,1.0685-3.6614,2.8008-3.8234.6753-.0622,1.3227.1176,1.8683.4835l.5474-2.6299c1.4122-6.7843,8.0538-11.1374,14.8381-9.7252l5.7522,1.1973c6.7843,1.4122,11.1374,8.0538,9.7252,14.8381l-.5528,2.6559c.6463-.1178,1.3117-.0244,1.906.3021,1.5238.8398,1.9895,2.9102,1.0426,4.6234Z"/>
    <path d="M510.0039,274.4771c-.1343,0-.2632-.0742-.3271-.2021-.3608-.7231-1.1147-1.2275-1.9209-1.2847-.2012-.0142-.3525-.189-.3384-.3901s.189-.3457.3901-.3384c1.0586.0752,2.0488.7373,2.5225,1.687.0898.1807.0166.3999-.1636.4897-.0522.0264-.1079.0386-.1626.0386Z"/>
    <path d="M540.0229,280.7256c-.104,0-.2075-.0444-.2798-.1304-.1294-.1548-.1094-.3848.0449-.5146.813-.6816,1.9858-.8931,2.9863-.5405.1904.0674.29.2759.2227.4658-.0669.1904-.2759.29-.4658.2227-.7622-.269-1.6543-.1074-2.2734.4116-.0684.0571-.1519.0854-.2349.0854Z"/>
    <path class="cls-3" d="M482.001,352.6863h49.9469l.3347-1.608,22.7493-6.5427c-5.3821-21.2-16.9532-31.2594-25.1992-35.8892-3.3105,1.7446-7.3854,2.3577-11.0086,1.6035-4.5579-.9487-8.1127-3.6754-10.3168-7.2742-7.3569-.1418-21.6979,1.7327-35.8298,15.6886v12.7565l11.7324,9.6926-2.4089,11.5729Z"/>
    <path d="M484.4102,341.4785c-.0845,0-.1665-.0293-.2324-.0835l-11.7324-9.6929c-.1558-.1284-.1777-.3584-.0488-.5137.1284-.1558.3589-.1777.5137-.0488l11.4238,9.437,6.8726-10.0967c.1143-.1665.3413-.21.5073-.0962.1665.1133.21.3403.0962.5073l-7.0981,10.4277c-.0576.085-.1484.1416-.2505.1558-.0171.0024-.0342.0039-.0513.0039Z"/>
    <path d="M532.2827,351.4434c-.0674,0-.1343-.0186-.1924-.0552-.0879-.0542-.1484-.1431-.167-.2446l-2.3091-12.3838c-.0376-.1982.0928-.3892.291-.4268.1978-.0381.3892.0928.4268.291l2.2378,11.9917,22.3613-6.4307c.1953-.0557.396.0562.4521.2495.0557.1938-.0562.396-.25.4521l-22.75,6.5425c-.0327.0093-.0669.0142-.1006.0142Z"/>
    <path d="M487.0127,337.6548c-.0894,0-.1782-.0327-.2485-.0981l-14.2725-13.2817c-.1479-.1372-.1562-.3682-.0186-.5156.1382-.1479.3682-.1558.5156-.0186l14.2725,13.2817c.1479.1372.1562.3682.0186.5156-.0718.0776-.1694.1167-.2671.1167Z"/>
    <path d="M531.6538,346.9468c-.1504,0-.2915-.0938-.3442-.2437-.0674-.1904.0327-.3989.2227-.4658l21.9204-7.7295c.1924-.0669.3989.0327.4658.2227.0674.1904-.0327.3989-.2227.4658l-21.9204,7.7295c-.0405.0142-.0815.021-.1216.021Z"/>
    <path d="M541.4512,261.5957c-.0874,0-.1646-.0625-.1797-.1514-.8037-4.6318-3.7295-8.7739-7.8257-11.0806-.0879-.0498-.1191-.1611-.0698-.2485.0498-.0869.1621-.1177.2485-.0698,4.1914,2.3599,7.1846,6.5977,8.0063,11.3364.0176.0996-.0493.1938-.1484.2109-.0107.002-.021.0029-.0312.0029Z"/>
    <path d="M508.772,266.3369c-.0547,0-.1084-.0244-.1445-.0713-1.3047-1.6909-1.772-4.0234-1.2197-6.0864s2.1226-3.8496,4.0981-4.6621c.0903-.0386.1992.0059.2383.0996.0381.0933-.0063.1997-.0996.2383-1.8721.77-3.3604,2.4634-3.8843,4.4189-.5234,1.9551-.0806,4.1655,1.1562,5.769.0615.0796.0469.1943-.0332.2559-.0332.0259-.0723.0381-.1113.0381Z"/>
    <path d="M510.4707,271.4536s9.1454-5.3366,9.2802-7.4567,1.0608-1.4086,2.3244-.5994,10.7613,4.3973,12.6219,3.5315,1.6626,1.5992,3.6066,3.973,3.9104,5.009,3.9104,5.009c0,0,1.4853-17.8491-12.606-17.918-14.0913-.0689-21.0284,1.5106-19.1375,13.4606Z"/>
    <path d="M538.4702,276.873c-.2295,0-.4619-.0591-.6743-.1831-2.3936-1.3955-5.1162-2.2769-7.8745-2.5483-.7373-.0723-1.2764-.729-1.2036-1.4663s.73-1.2744,1.4663-1.2036c3.1396.3086,6.2388,1.312,8.9634,2.9009.6401.373.8564,1.1943.4829,1.8345-.249.4277-.6982.666-1.1602.666Z"/>
    <path d="M524.2944,272.9497c-.1367,0-.2759-.021-.4131-.0654-2.6367-.8511-5.4844-1.1294-8.2368-.8047-.7422.0762-1.4023-.4399-1.4897-1.1753-.0864-.7358.4395-1.4028,1.1753-1.4897,3.1323-.3696,6.375-.0532,9.3765.917.7046.2275,1.0918.9839.8638,1.689-.1831.5679-.71.9292-1.2759.9292Z"/>
    <circle cx="518.9358" cy="275.7659" r="1.3827"/>
    <circle cx="533.3308" cy="278.6433" r="1.3827"/>
    <ellipse class="cls-5" cx="517.9986" cy="280.268" rx="1.8823" ry="2.0934" transform="translate(225.4524 791.4328) rotate(-88.633)"/>
    <ellipse class="cls-5" cx="532.3866" cy="283.1794" rx="1.8823" ry="2.0934" transform="translate(74.0043 674.9851) rotate(-68.5312)"/>
    <path d="M526.7025,289.9654c-.969.4133-2.0519.5634-3.095.4125-1.1216-.1622-2.1525-.6689-3.0065-1.406-.58-.5006-1.0336-1.6036-1.8101-1.7795-1.4633-.331-1.7534,1.3349-1.4612,2.4162.4366,1.6159,2.0623,2.9095,3.574,3.4574,2.4096.8734,5.6249.4689,7.2495-1.6936.8003-1.0653.3756-2.34-1.0471-1.5979-.1319.0688-.2666.1325-.4035.1909Z"/>
    <path d="M525.0381,284.7817c-.6494,0-1.293-.2397-1.8867-.707-.1719-.1353-.2017-.3848-.0664-.5566.1353-.1709.3838-.2021.5566-.0664.3892.3062,1.0073.6445,1.7393.5054.5063-.0947.8857-.3379,1.1602-.7441.979-1.4497.3564-4.5547.0571-6.0474l.3706-.167.3887-.0776-.3887.0776.4062.0112c.3452,1.7202.9873,4.9224-.1772,6.647-.3936.5825-.9561.9458-1.6714,1.0796-.1626.0303-.3257.0454-.4883.0454Z"/>
    <path class="cls-5" d="M522.6415,291.0236c-1.3675-.3847-3.4332-1.0704-5.0832-.8078.6284,1.329,2.0286,2.373,3.3454,2.8502,1.5769.5716,3.4984.5947,5.0937-.0629-.9183-.8957-2.0081-1.6004-3.3559-1.9795Z"/>
    <path class="cls-8" d="M554.1588,228.7261c-2.5029-2.2999-6.9396-4.7745-10.032-2.141-4.1674,3.549.2658,9.7676,2.6376,13.0041,1.9519,2.6636,4.1367,5.2263,6.5089,7.5287,1.8127-1.6624,3.5146-3.4673,5.1172-5.331,2.8194-3.2787,9.6664-11.6923,2.8803-14.6168-1.4873-.641-3.1779-.5294-4.602.2026-.3431.1763-2.1618,1.6732-2.5099,1.3534Z"/>
    <path d="M627.7651,355.083h-157.5249v-157.5249h157.5249v157.5249ZM475.2402,350.083h147.5249v-147.5249h-147.5249v147.5249Z"/>
    <circle cx="484.5025" cy="318.6173" r="1.38"/>
    <circle cx="493.3825" cy="344.8851" r="1.38"/>
    <circle cx="508.7712" cy="321.3773" r="1.38"/>
    <circle cx="541.2339" cy="332.6573" r="1.38"/>
    <circle cx="531.2739" cy="313.702" r="1.38"/>
    <circle cx="519.5139" cy="342.7168" r="1.38"/>
  </g>
  <g>
    <g>
      <rect class="cls-11" x="1046.3824" y="313.3794" width="95.2544" height="17.1598" rx="2.2476" ry="2.2476"/>
      <rect class="cls-12" x="1082.9783" y="313.3794" width="11.0313" height="17.1598" rx="1.2476" ry="1.2476"/>
      <rect class="cls-12" x="1074.1795" y="313.3794" width="3.4818" height="17.1598" rx="1.2476" ry="1.2476"/>
    </g>
    <g>
      <path class="cls-6" d="M1194.8969,285.9585c-.6161.8784-1.9797.6226-2.2313-.4203-2.1807-9.0392-8.8964-39.0614-5.7473-53.9071,3.2189-15.1748,11.5914-19.646,14.8646-26.7423.4573-.9915,1.8884-.9578,2.2833.0601,1.2112,3.1221,3.5703,7.7062,7.9219,11.747,7.4676,6.9342,6.9342,25.6032,0,40.5385-5.3824,11.5928-13.657,23.8283-17.0912,28.7242Z"/>
      <path class="cls-6" d="M1196.1203,263.4686c-1.5958-8.3829-8.3114-36.8779-26.0586-38.1914-.7164-.053-1.3342.4935-1.3586,1.2114-.1843,5.4183.7274,26.9969,25.6621,38.3499.9249.4211,1.9452-.3716,1.7552-1.3699Z"/>
      <path class="cls-3" d="M1194.9302,282.6989c-.8174.0843-1.4831-.649-1.337-1.4576,1.3799-7.6332,8.0804-40.295,22.662-46.4098,14.4976-6.0797,20.7946-6.0088,30.0355-8.4155,1.1608-.3023,2.0394,1.0222,1.3068,1.972-2.1808,2.8273-4.8921,7.2925-5.2057,12.3109-.5241,8.3851-17.525,38.9111-47.4617,42Z"/>
      <path class="cls-3" d="M1204.5405,286.6747c-.1001.8156-.9634,1.301-1.7191.9782-7.1332-3.0476-37.4777-16.864-40.1864-32.4422-2.0626-11.8624-1.6811-18.231-1.5175-24.8509.0812-3.2877,3.8873-4.9854,6.448-2.9218,1.8748,1.5108,4.1002,2.8588,6.6185,3.6031,8.057,2.381,34.0222,25.7622,30.3564,55.6336Z"/>
      <path class="cls-10" d="M1172.9102,274.8365h52.0191c2.2781,0,4.1276,1.8495,4.1276,4.1276v41.0019c0,6.0035-4.8741,10.8776-10.8776,10.8776h-38.5191c-6.0035,0-10.8776-4.8741-10.8776-10.8776v-41.0019c0-2.2781,1.8495-4.1276,4.1276-4.1276Z"/>
    </g>
    <g>
      <g>
        <rect class="cls-8" x="1072.0582" y="336.6189" width="11.2064" height="19.9614" rx="1.2476" ry="1.2476"/>
        <rect class="cls-8" x="1232.4497" y="336.6189" width="11.2064" height="19.9614" rx="1.2476" ry="1.2476"/>
      </g>
      <g>
        <rect class="cls-8" x="1034.6268" y="327.5606" width="246.4606" height="12.7777" rx="1.2476" ry="1.2476"/>
        <path class="cls-8" d="M1279.9462,340.4442h-244.178c-.689,0-1.2476-.5586-1.2476-1.2476v-10.4946c0-.689.5586-1.2476,1.2476-1.2476h244.178c.689,0,1.2476.5586,1.2476,1.2476v10.4946c0,.689-.5586,1.2476-1.2476,1.2476ZM1035.9802,340.2322h243.7541c.689,0,1.2476-.5586,1.2476-1.2476v-10.0707c0-.689-.5586-1.2476-1.2476-1.2476h-243.7541c-.689,0-1.2476.5586-1.2476,1.2476v10.0707c0,.689.5586,1.2476,1.2476,1.2476Z"/>
      </g>
    </g>
    <g>
      <rect class="cls-10" x="1059.3398" y="300.5388" width="72.1412" height="12.9574" rx="2.2476" ry="2.2476"/>
      <rect class="cls-4" x="1113.7084" y="304.2596" width="2.4952" height="6.8289" rx="1.2476" ry="1.2476"/>
      <rect class="cls-4" x="1121.4565" y="304.2596" width="6.1723" height="6.1723" rx="1.2476" ry="1.2476"/>
    </g>
  </g>
  <g>
    <g>
      <path d="M1256.0554,630.8354l-.0032-.0012c-.3315-.1245-.4989-.4936-.3746-.8249l12.7141-33.8722c.0621-.1655.19-.298.3528-.3664.1637-.0678.3422-.0663.5089.0067,7.715,3.4562,15.7492,6.3895,23.8801,8.7192.1727.0511.3178.17.3978.3317s.088.3495.0223.5176c-4.1125,10.5137-7.8035,21.3358-10.97,32.166-.0994.3395-.4549.5345-.7946.4351-.3429-.0978-.5343-.4556-.4351-.7946,3.1113-10.6413,6.7275-21.2761,10.7515-31.619-7.7405-2.2507-15.3883-5.0437-22.7532-8.3091l-12.4753,33.2351c-.124.3301-.4912.498-.8216.3761Z"/>
      <ellipse cx="1253.9363" cy="626.128" rx="5.4075" ry="5.7922" transform="translate(232.2812 1585.6141) rotate(-69.737)"/>
      <ellipse cx="1277.8496" cy="634.997" rx="5.4075" ry="5.7922" transform="translate(239.5925 1613.8448) rotate(-69.737)"/>
    </g>
    <g>
      <ellipse cx="1205.2199" cy="496.7112" rx="5.4075" ry="6.1646" transform="translate(68.979 1135.6428) rotate(-51.7481)"/>
      <path d="M1208.5336,501.7007c-.0677,0-.1364-.0136-.2026-.0419-.2606-.1115-.3814-.414-.2693-.6746,5.5038-12.8288,5.5185-27.2523,5.0509-36.9854-.0112-.2236.1242-.4284.3341-.5063.2094-.077.4462-.0107.584.1658,2.9604,3.7979,6.2632,7.3722,9.8168,10.6234.2094.1914.2236.5163.0321.7257-.1924.2094-.5178.2231-.7257.0321-3.2054-2.9326-6.2096-6.1251-8.9459-9.5061.3862,9.7744.093,23.5136-5.2024,35.8558-.0833.1948-.2728.3112-.472.3112Z"/>
    </g>
  </g>
  <g>
    <path class="cls-2" d="M733.9551,892.046c-.0446-.5602-.1066-1.1153-.1843-1.6657,9.6183,3.555,24.8061,7.9967,26.1723,8.2493,22.8427,4.2235,45.7142-1.7009,66.5784-10.9286,9.4762-4.191,18.7776-8.9009,28.4646-12.5949,5.7096-2.1773,14.2861-5.6482,19.9608-1.5616,8.0389,5.7891,7.9137,18.5739,6.285,27.1746-2.0026,10.5755-7.3152,20.114-16.1256,26.5261-11.2761,8.2065-24.7936,9.3778-38.0994,11.5162-13.8581,2.2271-27.1199,5.7851-40.7904,9.1008-18.7196,4.5406-35.15,3.1153-49.7759-9.9969-5.3868-4.8294-10.4216-10.207-15.0452-15.8886,8.666-6.9256,13.4968-18.1654,12.5597-29.9307Z"/>
    <path class="cls-2" d="M818.5459,890.597c-.0252-.5614-.0324-1.1199-.0235-1.6757-9.1036,4.7196-23.6239,11.0091-24.9483,11.4291-22.1432,7.0217-45.5726,3.9773-67.4195-2.5937-9.9225-2.9844-19.7359-6.5053-29.806-8.9704-5.9354-1.4529-14.876-3.8343-20.0005.924-7.2595,6.7407-5.5509,19.4114-2.869,27.744,3.2977,10.2459,9.7514,19.0524,19.2885,24.3233,12.2062,6.7458,25.7646,6.233,39.2329,6.706,14.0273.4926,27.6278,2.3797,41.6037,3.9758,19.138,2.1858,35.2651-1.2646,48.1534-16.0883,4.7468-5.4597,9.0764-11.4198,12.9603-17.6306-9.4575-5.7983-15.6438-16.3528-16.172-28.1435Z"/>
    <g>
      <path class="cls-3" d="M848.4318,946.5949c16.6901-20.3951,40.3202-32.6941,64.1223-42.1009,49.7329-19.6548,103.8702-28.8856,156.6742-20.5501"/>
      <path class="cls-6" d="M848.8184,946.9111l-.7734-.6328c18.041-22.0459,43.8535-34.1592,64.3252-42.249,53.6465-21.2031,107.9141-28.3174,156.9365-20.5791l-.1562.9883c-48.8447-7.71-102.9326-.6143-156.4131,20.5205-20.3594,8.0459-46.0234,20.0859-63.9189,41.9521Z"/>
    </g>
    <g>
      <path class="cls-3" d="M640.4949,953.1356c51.1762-27.2562,118.502-20.4621,163.2008,16.4692"/>
      <path class="cls-6" d="M803.377,969.9902c-44.6479-36.8896-111.5308-43.6367-162.647-16.4131l-.4697-.8828c51.4639-27.4092,118.8013-20.6143,163.7534,16.5244l-.6367.7715Z"/>
    </g>
    <g>
      <rect x="1103.4228" y="545.055" width="1.9369" height="10.4453" transform="translate(-129.4975 552.3285) rotate(-26.5806)"/>
      <rect x="1099.2891" y="541.6444" width="4.7006" height="6.2674" rx=".736" ry=".736" transform="translate(1107.4337 1773.7447) rotate(-116.5833)"/>
      <rect x="1117.4348" y="538.0431" width="1.9373" height="10.4458" transform="translate(-124.8778 557.9612) rotate(-26.5854)"/>
      <rect x="1131.4472" y="531.0316" width="1.9369" height="10.4453" transform="translate(-120.2606 563.386) rotate(-26.5806)"/>
      <rect x="1113.3012" y="534.6327" width="4.7006" height="6.2674" rx=".736" ry=".736" transform="translate(1133.9865 1776.1262) rotate(-116.5833)"/>
      <rect x="1127.3133" y="527.6211" width="4.7006" height="6.2674" rx=".736" ry=".736" transform="translate(1160.5394 1778.5077) rotate(-116.5833)"/>
      <rect x="1127.5722" y="593.3148" width="1.9369" height="10.4453" transform="translate(-148.5392 568.2351) rotate(-26.5806)"/>
      <rect x="1141.5842" y="586.3029" width="1.9373" height="10.4462" transform="translate(-143.9219 573.8445) rotate(-26.5842)"/>
      <rect x="1155.596" y="579.2916" width="1.9373" height="10.4458" transform="translate(-139.303 579.4008) rotate(-26.5854)"/>
      <rect x="1128.9422" y="600.9035" width="4.7006" height="6.2674" rx=".736" ry=".736" transform="translate(1165.2231 -677.9661) rotate(63.4167)"/>
      <rect x="1142.9543" y="593.8919" width="4.7006" height="6.2674" rx=".736" ry=".736" transform="translate(1166.6951 -694.3708) rotate(63.4168)"/>
      <rect x="1156.9664" y="586.8803" width="4.7006" height="6.2674" rx=".736" ry=".736" transform="translate(1168.1665 -710.7756) rotate(63.4168)"/>
    </g>
    <path class="cls-8" d="M1103.8709,525.4878h42.5558c3.1389,0,5.6872,2.5484,5.6872,5.6872v75.0181c0,4.6607-3.7839,8.4447-8.4447,8.4447h-37.0409c-4.6607,0-8.4447-3.7839-8.4447-8.4447v-75.0181c0-3.1389,2.5484-5.6872,5.6872-5.6872Z" transform="translate(1131.4463 -691.2428) rotate(63.4168)"/>
    <path class="cls-9" d="M1075.1806,624.101s8.882-16.246,7.1955-20.6816c-1.6864-4.4356-8.7459-1.6058-10.9059,8.4579"/>
    <path d="M864.3799,383.5376c-.0996,0-.2002-.0298-.2881-.0913-.2256-.1592-.2793-.4712-.1201-.6968.2568-.3647,25.5576-36.8398,12.3145-69.3198-.1045-.2559.0186-.5479.2744-.6519.2529-.1045.5469.0176.6514.2739,13.4521,32.9917-12.1631,69.9053-12.4238,70.2739-.0967.1382-.252.2119-.4082.2119Z"/>
    <path class="cls-3" d="M850.3305,605.0731c-70.8776-.6482-145.1806,12.3203-212.0344,35.1074-107.191,36.5359-216.5309,126.9885-189.2405,254.0241,11.206,52.1633,35.5067,99.2607,82.0584,128.2556,39.4564,24.5756,87.3365,32.2468,133.8202,32.0612,52.1025-.208,103.4538-9.8138,155.4311-12.1115,71.2629-3.1502,147.3015,6.3758,214.8545-21.9256,100.3714-42.052,179.4912-202.0366,125.2874-304.5953-54.1913-102.5348-210.512-109.9045-310.1768-110.8159Z"/>
    <path class="cls-6" d="M640.5424,798.7927c-1.0206-15.2963,41.159-49.9362,48.1742-62.559,8.5664-15.4139-79.1111-38.7174-73.4855-56.1029,2.7149-8.3903,19.6284-23.6794,25.2637-29.3898,29.6291-30.0241,115.2737,6.024,153.4744,6.7693,20.1041.3922,40.2066.9192,60.3061,1.5809,9.3279.3071,18.939.7209,27.445,5.4966,13.2082,7.4157,21.6003,24.0722,34.0701,33.2575,7.5364,5.5514,16.874,8.7462,21.5742,17.9437,3.5146,6.8775,3.55,15.5501,3.4722,23.7006-.1427,14.9572-.2854,29.9145-.4281,44.8717-.0641,6.7159-.1614,13.6361-2.2956,19.8047-4.1617,12.0287-14.7997,18.1371-24.6804,22.6377-57.43,26.1595-119.1725,33.824-180.2678,37.1662-14.3943.7874-29.0711,1.3082-42.9336-3.5808-16.2025-5.7143-48.1344-38.2958-49.6891-61.5965Z"/>
    <path class="cls-6" d="M934.676,700.2653s66.5942,61.3688,85.3142,39.7623c18.72-21.6066-38.4-72.0066-95.52-83.5266"/>
    <path class="cls-6" d="M1001.8868,886.8886c26.9787-14.1872,71.6044-51.5335,63.9648-81.0422-6.4213-24.803-23.1989-24.768-48.6863-22.1574-25.4874,2.6106-48.5271,15.6211-72.5355,24.5662-42.6047,15.8738-88.7245,19.0149-134.0922,22.0003-34.8455,2.2929-71.5655,4.2372-102.8779-11.2225-37.0689-18.3018-66.1155-60.2219-107.3194-56.8606-18.1213,1.4783-34.3899,12.1525-46.9889,25.2609-13.3605,13.9007-23.6981,31.406-25.9562,50.5537-2.2581,19.1477,14.7249,31.242,30.0911,42.8873,16.4634,12.4768,28.658,21.3852,49.3149,21.4779,80.8648.3628,161.1804,7.0479,241.274,17.8773,62.9884,8.5166,97.2075-3.5747,153.8116-33.3409Z"/>
    <path class="cls-10" d="M698.2274,716.7514s-5.1485,98.2817,2.8028,105.3496c7.9514,7.0679,225.3472-15.2487,225.3472-15.2487l8.9229-114.6051,2.6505-36.2228s32.1307,59.769,63.936,79.2059c39.2061,23.9596,68.5995-48.383,73.2938-72.5282-13.3342,8.5452-22.0691,7.8173-35.3807-2.199-1.868,5.8275-18.0049,11.9768-23.8444,10.1469-5.8395-1.8299-10.2233-6.6015-14.0686-11.362-22.1043-27.3648-39.3254-60.6142-60.1005-88.912-25.2467-34.3886-64.607-58.3974-107.6264-60.427-33.96-1.602-71.496-1.0609-103.9366,10.195-38.7076,13.4303-69.0993,43.7112-90.89,77.5706-57.4264,89.2318-33.5222,91.9524,90.1655,128.1752,0,0-.215-31.5734,22.7556-35.1074l-64.1391-45.8015"/>
    <g>
      <path d="M808.7834,923.5184c-40.0899,1.6108-83.7299,3.3641-83.7299,3.3641,0,0-121.2927-29.3235-185.2712-65.3114-63.9786-35.9879-47.9839-79.9732,0-98.6336,47.9839-18.6604,166.6108,31.9893,166.6108,31.9893,0,0,41.2691.7146,81.0726,1.4039h-11.2914c39.8036-.6892,81.0726-1.4039,81.0726-1.4039,0,0,118.6269-50.6497,166.6108-31.9893,47.9839,18.6604,63.9786,62.6457,0,98.6336-63.9786,35.9879-185.2712,65.3114-185.2712,65.3114,0,0-43.6401-1.7534-83.7299-3.3641"/>
      <path d="M838.6367,927.3848l-.0703-.002-56.7466-2.2803-56.8159,2.2822-.0679-.0156c-1.2134-.2939-122.0923-29.7529-185.3989-65.3623-28.686-16.1357-43.7319-35.6318-42.3667-54.8984,1.2842-18.1172,17.146-34.8037,42.4307-44.6367,47.0586-18.3027,163.0259,30.3193,166.8979,31.957l75.3213,1.3047,75.3213-1.3047c3.8711-1.6377,119.833-50.2607,166.8975-31.957,25.2842,9.832,41.1465,26.5195,42.4297,44.6367,1.3662,19.2656-13.6807,38.7627-42.3662,54.8984-63.3066,35.6094-184.1846,65.0684-185.3984,65.3623l-.0674.0156ZM794.2744,924.6016l44.2627,1.7793c3.4531-.8418,122.4951-30.0449,185.0752-65.2451,28.3301-15.9365,43.1963-35.0977,41.8594-53.9561-1.2559-17.7227-16.8809-34.0869-41.7959-43.7764-47.2471-18.375-165.0488,31.4775-166.2324,31.9834l-.1875.04-69.7886,1.209-.0015.1953h-11.2915l-.002-.1953-69.8857-1.2109-.0898-.0381c-1.1846-.5059-118.9854-50.3584-166.2334-31.9834-24.915,9.6895-40.5391,26.0537-41.7954,43.7764-1.3364,18.8584,13.5298,38.0205,41.8594,53.9561,62.5815,35.2012,181.623,64.4033,185.0762,65.2451l44.2622-1.7793-14.5293-.583.04-1,26.9434,1.083,26.9429-1.083.041,1-14.5293.583Z"/>
    </g>
    <g>
      <path d="M627.0863,811.5879l113.8107,53.0975c3.8862,2.2874,5.4281,7.133,3.5786,11.2457l-16.4127,44.2599c-1.7479,3.8865-6.0236,5.9567-10.1524,4.9016-26.9154-6.8777-123.4516-32.7659-178.1282-63.5215-52.2955-29.4162-51.1587-64.1757-22.7945-86.0804"/>
      <path d="M720.084,925.8672c-.7603,0-1.5308-.0938-2.2969-.29-28.0439-7.166-123.7778-32.9297-178.25-63.5703-26.4175-14.8594-41.0659-32.124-42.3608-49.9277-.9736-13.3838,5.9536-26.5186,19.5059-36.9844l.6113.791c-13.2778,10.2549-20.0684,23.083-19.1196,36.1211,1.2695,17.4531,15.7422,34.4414,41.8535,49.1289,54.3657,30.5801,149.9932,56.3145,178.0073,63.4727,3.8896.9951,7.9194-.9482,9.5723-4.6221l16.3999-44.2295c1.7607-3.918.3096-8.4785-3.3633-10.6406l-113.7686-53.0752.4229-.9062,113.8105,53.0977c4.1553,2.4434,5.7808,7.5508,3.8232,11.9033l-16.3999,44.2295c-1.5376,3.4209-4.876,5.502-8.4478,5.502Z"/>
    </g>
    <rect class="cls-8" x="893.4924" y="615.6018" width="216.7889" height="31.8112" transform="translate(-176.6837 515.1018) rotate(-26.5833)"/>
    <path class="cls-8" d="M712.7973,806.7213c26.236,35.1771,69.7813,60.5258,108.5607,34.4311,10.0951-6.793,18.0914-16.3375,24.6557-26.4785,9.2109-14.2299,13.2432-34.7804,28.8741-43.581,10.0849-5.678,21.0765-4.5126,32.0902-5.3503,12.1297-.9226,23.8692-4.8278,33.8762-11.8127,31.7643-22.1715,32.4888-58.7137,18.3119-91.2937-8.7253-20.0516-18.2413-41.6878-37.7758-53.4655-11.5787-6.981-25.5536-9.5009-39.018-8.2708-14.7349,1.3463-29.2766,7.4411-40.138,17.5693-11.0386,10.2934-16.0097,26.1333-29.8743,33.5618-15.8118,8.4717-35.3187.8517-52.269.9927-12.0797.1005-24.4242,1.7296-35.5727,6.6061-38.4771,16.8309-41.8498,65.2446-33.8794,101.1214,3.3388,15.0291,11.2534,31.3486,22.1585,45.97Z"/>
    <path d="M842.4346,754.8711c-24.0273,0-43.5742-19.5469-43.5742-43.5742s19.5469-43.5742,43.5742-43.5742,43.5752,19.5469,43.5752,43.5742-19.5479,43.5742-43.5752,43.5742ZM842.4346,669.1738c-23.2266,0-42.123,18.8965-42.123,42.123s18.8965,42.123,42.123,42.123,42.124-18.8965,42.124-42.123-18.8965-42.123-42.124-42.123Z"/>
    <rect x="771.467" y="724.0888" width="9.4518" height="48.118" rx="1.48" ry="1.48" transform="translate(-252.7393 426.4351) rotate(-26.5833)"/>
    <circle cx="842.4349" cy="711.2967" r="32.6889"/>
    <g>
      <path class="cls-1" d="M768.7461,736.4561l-.3291-.6406c52.4268-26.9111,103.6553-53.0254,155.8906-79.6357,3.0127-1.5068,6.0693-2.7793,9.0244-4.0107,2.9443-1.2275,5.9883-2.4961,8.9775-3.9902l3.7979-1.9854c42.9238-22.4385,83.4678-43.6328,126.1074-64.4785l.3164.6475c-42.6318,20.8408-83.1709,42.0332-126.0898,64.4697l-3.8037,1.9883c-3.0166,1.5088-6.0732,2.7812-9.0283,4.0127-2.9443,1.2275-5.9883,2.4961-8.9775,3.9902-52.2324,26.6084-103.46,52.7227-155.8857,79.6328Z"/>
      <path class="cls-1" d="M770.7676,740.7217l-.3223-.6445c51.4189-25.6904,103.2324-52.2559,153.3389-77.9473,37.6562-19.3066,76.5938-39.2715,115.5244-58.9502,3.0117-1.5068,6.0684-2.7798,9.0234-4.0112,2.9443-1.2266,5.9883-2.4951,8.9775-3.9897,3.3076-2.6562,7.0508-4.416,11.0137-6.2793,1.9082-.897,3.8818-1.8247,5.8125-2.8677l.3418.6338c-1.9482,1.0522-3.9307,1.9844-5.8477,2.8857-3.9229,1.8447-7.6289,3.5869-10.9346,6.231-3.0742,1.5464-6.1309,2.8198-9.0859,4.0513-2.9443,1.2271-5.9883,2.4956-8.9775,3.9897-38.9268,19.6777-77.8643,39.6416-115.5186,58.9473-50.1084,25.6924-101.9238,52.2588-153.3457,77.9512Z"/>
      <path class="cls-1" d="M772.6934,745.0361l-.3066-.6523c3.8384-1.8086,7.7607-3.7998,11.5537-5.7266,5.0386-2.5576,10.2485-5.2031,15.3833-7.4854,15.9887-7.9941,32.0054-16.1299,47.4956-23.998,15.4824-7.8643,31.4931-15.9961,47.4902-23.9951,46.8135-24.5576,93.9219-48.3848,139.4795-71.4277,14.0664-7.1143,28.1514-14.2383,42.2773-21.4077l.3262.6426c-14.127,7.1694-28.2119,14.2935-42.2783,21.4087-45.5547,23.041-92.6611,46.8662-139.4766,71.4258-16.001,8-32.0107,16.1318-47.4922,23.9961-15.4912,7.8682-31.5088,16.0039-47.5142,24.0068-5.1328,2.2812-10.3345,4.9229-15.3647,7.4766-3.7979,1.9287-7.7246,3.9219-11.5732,5.7363Z"/>
      <path class="cls-1" d="M775.5098,748.8984l-.3105-.6504c21.2231-10.123,73.1221-36.0801,76.0713-38.0469,41.751-21.6904,83.4131-42.75,123.7031-63.1162,33.8438-17.1074,68.8389-34.7979,103.0996-52.4692l.3301.6406c-34.2627,17.6724-69.2598,35.3628-103.1045,52.4712-40.2891,20.3652-81.9492,41.4238-123.6621,63.0928-2.9297,1.9561-54.8896,27.9473-76.127,38.0781Z"/>
      <path class="cls-1" d="M777.6943,753.0801l-.2832-.6621c12.1479-5.2051,23.2207-11.2676,34.9434-17.6855,4.5078-2.4678,9.1689-5.0195,13.9473-7.5498,8.4062-4.4033,16.9502-8.5527,25.2119-12.5654,12.3838-6.0156,25.1885-12.2354,37.7783-19.4287,2.5391-1.0195,4.8232-2.0352,7.0322-3.0166,2.2021-.9785,4.4795-1.9912,6.9688-2.9873,5.6562-4.2344,11.792-6.9746,17.7256-9.624,2.5371-1.1328,4.9326-2.2031,7.291-3.3818,10.3564-6.375,20.6846-11.4629,31.6182-16.8496,2.7588-1.3594,5.5498-2.7344,8.3818-4.1504,4.4697-2.2344,9.001-4.4697,13.5635-6.7197,13.7168-6.7646,27.8994-13.7598,41.4229-21.2725,13.5439-7.1289,27.2852-13.8457,40.5742-20.3418,5.4512-2.665,10.8955-5.3262,16.3311-8.0171l.3203.6455c-5.4375,2.6909-10.8828,5.353-16.335,8.0181-13.2842,6.4941-27.0205,13.209-40.5479,20.3281-13.5312,7.5176-27.7227,14.5166-41.4473,21.2852-4.5605,2.25-9.0908,4.4844-13.5596,6.7188-2.833,1.417-5.626,2.792-8.3857,4.1523-10.918,5.3789-21.2314,10.46-31.5869,16.832-2.3994,1.2012-4.8027,2.2744-7.3477,3.4111-5.9102,2.6396-12.0225,5.3682-17.625,9.5703l-.082.0459c-2.4941.998-4.7783,2.0137-6.9873,2.9951-2.2158.9844-4.5068,2.0029-7.0127,3.0049-12.5654,7.1846-25.3818,13.4102-37.7764,19.4297-8.2568,4.0107-16.7949,8.1582-25.1904,12.5557-4.7725,2.5264-9.4316,5.0771-13.9365,7.5439-11.7388,6.4268-22.8267,12.4971-35.0068,17.7158Z"/>
      <path class="cls-1" d="M780.0029,757.2012l-.3203-.6445c65.0312-32.2373,130.4814-65.6924,193.7773-98.0469,35.626-18.2109,72.4639-37.041,108.8242-55.4482l.3262.6426c-36.3604,18.4072-73.1973,37.2363-108.8223,55.4463-63.2979,32.3555-128.75,65.8125-193.7852,98.0508Z"/>
    </g>
    <path class="cls-9" d="M721.2028,713.141c12.2924,11.0712,24.9327,26.7561,38.4734,36.2795,6.3569,4.4709,24.0858,14.0508,24.8429-.3358,0,0,5.3009-1.4725,5.8899-7.9514,0,0,6.4123-1.3276,6.4123-9.5734,0,0,19.579,7.3316,25.4689,4.6811,5.8899-2.6505-3.9625-8.7803-19.74-21.06-15.6694-12.1955-50.8166-22.8436-57.2954-24.905"/>
    <path class="cls-9" d="M1071.4702,669.8656c4.7119-15.6082,5.7764-47.4136,4.5984-55.6596-.6469-4.5282-2.8531-8.9517-5.166-12.8402-1.7303-2.9091-5.4022-9.5157-9.436-9.2448-1.232.0827-2.3814.6703-3.368,1.4127-1.6447,1.2376-2.8365,2.9567-2.3502,5.0642,0,0-7.5522-5.4407-11.1067,2.798,0,0-6.9876-3.3912-9.2255,4.2713,0,0-2.1764-.6291-3.69-.18-2.3266.6904-2.9621,3.0419-2.7436,5.4589.4786,5.2932,2.1516,16.3971,7.7156,27.4211,7.2679,14.4,4.6519,29.2937,4.6519,29.2937"/>
    <g>
      <path d="M936.5538,811.5879l-122.6435,69.2865c-3.8862,2.2874-5.4281,7.133-3.5786,11.2457l14.2338,31.65c1.7479,3.8865,6.0236,5.9567,10.1524,4.9016,26.9154-6.8777,134.4633-36.345,189.1399-67.1006,52.2955-29.4162,51.1587-64.1757,22.7945-86.0804"/>
      <path d="M832.542,929.4463c-3.5703,0-6.9053-2.0762-8.4326-5.4707l-14.2334-31.6504c-1.957-4.3525-.332-9.46,3.7803-11.8818l122.6514-69.291.4922.8711-122.6436,69.2861c-3.665,2.1582-5.1162,6.7188-3.3682,10.6055l14.2334,31.6504c1.6523,3.6719,5.6797,5.6143,9.5723,4.6221,5.2236-1.335,128.6289-33.082,189.0186-67.0518,26.1113-14.6875,40.585-31.6758,41.8545-49.1289.9482-13.0381-5.8418-25.8662-19.1201-36.1211l.6113-.791c13.5518,10.4658,20.4795,23.6006,19.5059,36.9844-1.2949,17.8037-15.9434,35.0684-42.3613,49.9277-60.5029,34.0342-184.0322,65.8135-189.2607,67.1494-.7666.1963-1.5391.29-2.2998.29Z"/>
    </g>
    <path d="M790.4092,742.1328c-.105,0-.2114-.0166-.3164-.0518-.5161-.1719-12.7119-4.3076-19.0625-12.123-.3486-.4287-.2832-1.0586.145-1.4072.4292-.3477,1.0586-.2832,1.4067.1455,5.98,7.3594,18.0229,11.4473,18.144,11.4883.5234.1748.8066.7412.6313,1.2646-.1396.4189-.5298.6836-.9482.6836Z"/>
    <path d="M784.5195,750.085c-.0859,0-.1729-.0107-.2598-.0342-.5562-.1494-13.6787-3.7422-18.5117-11.1787-.3013-.4629-.1694-1.082.2935-1.3838.4644-.3008,1.083-.1689,1.3833.2939,4.4199,6.7998,17.2246,10.3027,17.3535,10.3369.5332.1436.8496.6914.7065,1.2246-.1201.4473-.5239.7412-.9653.7412Z"/>
    <path d="M796.4297,732.6211c-.1392,0-.2803-.0293-.4146-.0898-.4995-.2285-12.2607-5.6289-15.2046-9.8398-.3169-.4531-.2061-1.0762.2466-1.3926.4526-.3154,1.0767-.207,1.3921.2461,2.1855,3.126,11.1328,7.6768,14.396,9.166.5024.2295.7241.8232.4946,1.3252-.168.3682-.5308.585-.9102.585Z"/>
    <path d="M1042.8867,619.0869c-.4189,0-.8086-.2646-.9482-.6836-2.0674-6.2002-7.2168-12.0117-7.2686-12.0703-.3672-.4121-.332-1.0439.0801-1.4121.4111-.3662,1.043-.333,1.4111.0801.2227.248,5.4736,6.1699,7.6738,12.7695.1748.5244-.1084,1.0908-.6318,1.2646-.1055.0352-.2119.0518-.3164.0518Z"/>
    <path d="M1063.7666,611.167c-.3877,0-.7568-.2266-.9189-.6064-1.5459-3.6045-7.8096-11.251-7.8721-11.3276-.3506-.4268-.2891-1.0571.1377-1.4077.4287-.3511,1.0576-.2881,1.4072.1382.2656.3228,6.5078,7.9438,8.165,11.8101.2178.5068-.0176,1.0947-.5254,1.3125-.1279.0557-.2617.0811-.3936.0811Z"/>
    <path d="M1051.8867,615.127c-.4111,0-.7959-.2549-.9414-.6631-1.7344-4.8555-7.0664-12.4141-7.1201-12.4893-.3193-.4512-.2119-1.0752.2383-1.3945.4531-.3188,1.0742-.2119,1.3945.2388.2256.3188,5.5439,7.8608,7.3701,12.9712.1865.5205-.085,1.0928-.6045,1.2783-.1113.04-.2256.0586-.3369.0586Z"/>
    <path class="cls-10" d="M982.7657,719.2621c6.2066,6.425,12.6706,12.0261,19.1211,15.9682,39.2061,23.9596,68.5995-48.383,73.2938-72.5282-13.3342,8.5452-22.0691,7.8173-35.3807-2.199-1.868,5.8275-18.0049,11.9768-23.8444,10.1469-3.7954-1.1893-6.9758-3.6213-9.7932-6.4853"/>
    <path class="cls-9" d="M792.6041,527.2433h16.0651c11.3509,0,20.496-9.2929,20.3312-20.6426-.3746-25.7987-.1462-61.865-.1462-61.865l-59.1333-8.9561s4.3778,40.1926,2.5911,69.8875c-.7039,11.6996,8.5713,21.5762,20.2921,21.5762Z"/>
    <path d="M752.7893,418.3587s-40.9153-40.3142-10.8794-55.4679c1.4237-.2523-7.029-52.4225,45.7313-46.0509-.5898-.0712,6.0966-8.7325,7.185-9.7117,4.6686-4.2006,10.3027-6.6633,16.3492-8.2053,17.3663-4.429,41.254-3.7662,54.6108,9.788,14.4608,14.6749,12.3676,38.7508,6.4905,56.7758-1.8902,5.7974-8.0032,23.5956-15.5432,25.416-.0069.0017-103.9442,27.4559-103.9442,27.4559Z"/>
    <ellipse class="cls-9" cx="761.5239" cy="427.7355" rx="11.5241" ry="13.5471" transform="translate(-111.8341 416.682) rotate(-28.5971)"/>
    <ellipse class="cls-9" cx="866.9565" cy="400.6321" rx="13.5471" ry="11.5241" transform="translate(342.6459 1198.8915) rotate(-81.5047)"/>
    <path class="cls-9" d="M851.0003,347.7931c14.1616,27.6447,22.0138,62.6357,17.3681,93.684-2.4149,16.1392-12.3984,29.0028-27.7548,34.7752-32.5594,12.2388-70.9107-18.5275-77.2995-51.1105-1.6069-8.1952-1.8098-16.6262-1.1586-24.9353,2.3653-30.1806,22.1031-52.7932,52.4347-56.6308,14.0476-1.7773,26.2097-10.5917,35.336,2.4249.3971.5664.7531,1.1661,1.074,1.7925Z"/>
    <path d="M795.3223,406.6758c-1.3218,0-2.6187-.6396-3.4062-1.8223-1.2515-1.8789-.7427-4.417,1.1362-5.6685,7.9995-5.3281,17.2456-8.9419,26.7378-10.4502,2.2363-.3584,4.3252,1.1665,4.6787,3.3955.3545,2.23-1.166,4.3247-3.3955,4.6787-8.3389,1.3252-16.4609,4.4995-23.4888,9.1807-.6968.4639-1.4839.686-2.2622.686Z"/>
    <path d="M839.0654,392.5225c-1.6797,0-3.2539-1.043-3.8506-2.7158-.7578-2.1265.3506-4.4648,2.4775-5.2231,7.0557-2.5166,14.8965-2.7256,22.0781-.5889,2.1641.644,3.3965,2.9199,2.752,5.084-.6445,2.1646-2.9258,3.3955-5.084,2.752-5.5283-1.644-11.5664-1.4834-17,.4531-.4531.1621-.917.2388-1.373.2388Z"/>
    <circle cx="816.8754" cy="410.8926" r="4.7058"/>
    <circle cx="849.7723" cy="403.6913" r="4.7058"/>
    <ellipse class="cls-5" cx="810.9078" cy="428.1073" rx="7.1247" ry="6.4062" transform="translate(-101.4286 335.9683) rotate(-22.0643)"/>
    <ellipse class="cls-5" cx="856.7185" cy="418.3587" rx="7.1247" ry="6.4062" transform="translate(-13.8245 29.5843) rotate(-1.9625)"/>
    <path d="M832.3848,455.5117c-1.125,0-2.249-.0879-3.3604-.2671-5.3291-.8594-10.2832-3.7979-13.5928-8.0615-.5088-.6548-.3896-1.5967.2646-2.105.6533-.5068,1.5977-.3892,2.1045.2651,2.8496,3.6709,7.1143,6.2002,11.7012,6.9395,4.583.7388,9.4307-.3223,13.2881-2.9111.6875-.4595,1.6191-.2788,2.0811.4097.4619.688.2783,1.6196-.4092,2.0815-3.5469,2.3804-7.8105,3.6489-12.0771,3.6489Z"/>
    <path d="M754.5444,427.1982c-.2593,0-.5151-.1206-.6782-.3477-.2686-.3745-.1826-.8955.1914-1.1641,1.752-1.2573,4.1255-1.6597,6.1948-1.0503.4419.1299.6948.5933.5645,1.0352-.1299.4419-.5957.6963-1.0352.5645-1.5884-.4668-3.4072-.1582-4.7515.8062-.1475.1055-.3174.1562-.4858.1562Z"/>
    <path d="M869.4551,399.8184c-.2031,0-.4062-.0737-.5664-.2222-.3379-.313-.3584-.8403-.0459-1.1782,1.29-1.3936,3.2549-2.1567,5.1602-1.9858.459.041.7969.4458.7568.9048-.041.458-.4375.7959-.9053.7563-1.3857-.1235-2.8408.4341-3.7871,1.4575-.165.1777-.3887.2676-.6123.2676Z"/>
    <path d="M834.0146,433.686c-.9883,0-2.0146-.1382-3.0684-.416-.7207-.1899-1.1504-.9277-.9609-1.6484.1904-.7202.9316-1.1479,1.6484-.96,1.6299.4297,4.0117.6436,6.1143-.7759,1.4531-.9814,2.3096-2.2554,2.6162-3.895,1.0957-5.8569-5.0537-14.7119-8.0088-18.9673l-.1729-.248c-.4248-.6118-.2725-1.4526.3389-1.877.6133-.4258,1.4521-.2729,1.8779.3389l.1719.2476c3.4062,4.9053,9.748,14.0366,8.4443,21.002-.4404,2.3525-1.7041,4.248-3.7578,5.6348-1.5391,1.0386-3.3164,1.5645-5.2432,1.5645Z"/>
    <path d="M762.0024,414.828s13.884-10.3835,18.924-28.7454c0,0,5.04-19.8019,14.16-19.8019s31.6573,5.608,47.3485-3.84c0,0,20.8537-.8615,22.6613,13.064,4.3585-21.704,2.8049-40.904-24.4825-44.744s-93.2889,27.4926-78.6113,84.0674Z"/>
    <path d="M828.7955,478.8648c-26.2675,2.1791-47.7686-21.2171-47.7686-21.2171,1.1802,3.4594,13.7374,35.8498,47.8524,38.0105,0-7.2641-.0083-12.7989-.0838-16.7934Z"/>
    <path d="M741.9092,363.3906c-.2197,0-.4209-.146-.4819-.3677-.1104-.4048-10.6782-40.5459,23.7632-50.2637.2651-.0737.542.0801.6172.3457.0747.2656-.0801.542-.3457.6172-33.4971,9.4512-23.1782,48.6416-23.0698,49.0361.0728.2666-.084.5415-.3501.6147-.0444.0117-.0889.0176-.1328.0176Z"/>
    <path class="cls-10" d="M856.7185,527.2433s-13.0923-3.7023-27.7158-16.1963c-26.3476,17.7459-56.3046,0-56.3046,0l-12.681,16.1963"/>
    <circle cx="805.1481" cy="545.4232" r="5.5622"/>
    <circle cx="805.1481" cy="575.7929" r="5.5622"/>
    <path class="cls-10" d="M632.3312,693.4048c19.3866,10.2905,51.4656,19.1007,97.1677,32.4849,0,0-.215-31.5734,22.7556-35.1074l-64.1391-45.8015,23.7149-30.8535"/>
    <path d="M729.4985,726.8896c-.5391,0-.9839-.4297-.999-.9717-.0093-.3242-.6421-32.4834,22.8726-36.626.541-.0996,1.0625.2666,1.1582.8105s-.2676,1.0625-.8115,1.1582c-21.8115,3.8438-21.2285,34.2939-21.2202,34.6016.0151.5518-.4199,1.0117-.9717,1.0264-.0093.001-.019.001-.0283.001Z"/>
    <path d="M1060.3027,669.4189c-11.4678,0-21.0176-8.04-21.1543-8.1572-.4189-.3594-.4668-.9902-.1074-1.4092.3584-.4199.9912-.4697,1.4102-.1084.75.6426,18.5557,15.5889,34.0762,2.2002.4189-.3594,1.0479-.3154,1.4111.1045.3604.4189.3135,1.0498-.1045,1.4111-5.126,4.4189-10.5117,5.959-15.5312,5.959Z"/>
    <path d="M802.4092,519.3032c-16.8511,0-30.0039-7.2729-30.2031-7.3857-.4805-.272-.6499-.8818-.3784-1.3623.272-.4814.8823-.6504,1.3623-.3789.2949.1665,29.7261,16.4072,56.4282-.6797.4658-.2988,1.084-.1616,1.3818.3032.2969.4653.1611,1.0835-.3037,1.3813-9.5537,6.1128-19.4316,8.1221-28.2871,8.1221Z"/>
    <g>
      <rect x="1104.9904" y="554.8569" width="40.5394" height="4.2227" rx=".7468" ry=".7468" transform="translate(-130.2852 562.4312) rotate(-26.5833)"/>
      <rect x="1115.4264" y="575.7124" width="40.5394" height="4.2227" rx=".7468" ry=".7468" transform="translate(-138.5148 569.3061) rotate(-26.5833)"/>
    </g>
    <g>
      <path class="cls-3" d="M491.7796,850.4285c55.6546-7.827,117.8961,21.2206,123.1855,74.3408"/>
      <path class="cls-6" d="M614.4678,924.8193c-1.9722-19.8066-12.0903-37.4053-29.2607-50.8945-24.0605-18.9023-59.8306-27.7158-93.3574-23.001l-.1396-.9902c33.7852-4.752,69.8472,4.1396,94.1147,23.2051,17.3896,13.6611,27.6382,31.498,29.6382,51.5811l-.9951.0996Z"/>
    </g>
  </g>
  <g>
    <path d="M1217.5051,953.2565c3.1656,1.3156,6.7275,1.3589,10.1267.9076,9.9032-1.315,19.0708-6.7317,25.5789-14.3111,11.6133-13.5249,15.5375-34.4155,10.3265-51.4136-1.6673-5.4387-6.0343-14.6911-11.9891-16.712-7.7436-2.6279-4.5281,11.292-4.3,15.0044.5582,9.0842.8727,18.5251-2.6016,27.1263-5.3228,13.1775-17.7843,20.5071-30.0139,26.3235-6.8858,3.2749-2.7737,10.709,2.8725,13.075Z"/>
    <path d="M1204.2656,691.3875s31.2872,71.9533,23.4898,106.1872c-1.181,5.1852-3.5709,13.3894-9.4988,14.9582-6.9798,1.8472-14.2899-6.5173-17.3914-11.7602-8.7029-14.7121-6.2317-33.2445-6.0932-49.5289.0893-10.5088.2845-21.0167.5304-31.5228.0733-3.134-1.3489-11.9785.3863-14.7305.0031-.005,8.577-13.6029,8.577-13.6029Z"/>
    <path d="M1123.64,691.3875s-31.2872,71.9533-23.4898,106.1872c1.181,5.1852,3.5709,13.3894,9.4988,14.9582,6.9798,1.8472,14.2899-6.5173,17.3914-11.7602,8.7029-14.7121,6.2317-33.2445,6.0932-49.5289-.0893-10.5088-.2845-21.0167-.5304-31.5228-.0733-3.134,1.3489-11.9785-.3863-14.7305-.0031-.005-8.577-13.6029-8.577-13.6029Z"/>
    <path class="cls-11" d="M1219.9318,947.2618s26.6649,26.7326,0,82.4523c-3.4752,6.4416.8985,12.5611,0,17.7144-.8985,5.1533-25.6986,16.104-29.8857,6.1195-4.187-9.9845-.7796-100.8108,29.8857-106.2862Z"/>
    <path d="M1191.791,1044.3203c-.6553,0-1.2188-.4941-1.29-1.1602-.0283-.2695-.0479-1.2334.9141-2.3271,2.0234-2.3008,6.9717-3.5537,14.707-3.7217.6943-.0273,1.3105.5527,1.3271,1.2705.0156.7178-.5537,1.3115-1.2705,1.3271-9.4922.2061-12.123,2.0547-12.8125,2.8398-.0342.0391-.2812.334-.2812.334.0762.7139-.4404,1.3545-1.1533,1.4307-.0479.0049-.0938.0068-.1406.0068Z"/>
    <path class="cls-11" d="M1107.7771,947.2618s-26.6649,26.7326,0,82.4523c3.4752,6.4416-.8985,12.5611,0,17.7144.8985,5.1533,25.6986,16.104,29.8857,6.1195,4.187-9.9845.7796-100.8108-29.8857-106.2862Z"/>
    <path d="M1135.918,1044.3203c-.0469,0-.0928-.002-.1396-.0068-.6729-.0723-1.1709-.6465-1.1611-1.3096-.0625-.209-1.1572-3.0352-13.0869-3.2949-.7168-.0156-1.2861-.6094-1.2705-1.3271s.6123-1.292,1.3271-1.2705c7.7354.168,12.6836,1.4199,14.707,3.7217.9619,1.0938.9424,2.0566.9141,2.3262-.0713.667-.6348,1.1611-1.29,1.1611ZM1134.624,1042.8896q0,.001-.001.002.001-.001.001-.002ZM1134.624,1042.8838v.0059-.0059Z"/>
    <path class="cls-11" d="M1135.5087,824.9006c-27.4065,50.726-33.4765,109.6618-28.1085,168.7097,1.7893,14.3146,7.1573,28.6293,17.8933,37.5759,28.6293,21.472,71.5732,10.736,87.6772-19.6826,8.9466-17.8933,8.9466-37.5759,7.1573-57.2586-5.368-44.7332-17.2238-87.1689-35.7629-129.5064-7.8513-17.9299,2.5922-56.8751,2.5922-56.8751,1.6104-10.6286,7.7299-23.1897,7.7299-23.1897,21.9014-21.2572,8.052-57.6522,8.052-57.6524.8779-10.3163-2.494-20.2553-11.2489-26.231-9.0324-6.1652-19.509-6.1651-30.0953-6.1479-10.0215.0163-20.0893,1.3324-27.9229,8.1436-7.0263,6.1092-9.4239,15.1791-8.6532,24.2355,0,0-13.8494,36.395,8.052,57.6522,0,0,6.1195,12.5611,7.7299,23.1897,0,0,5.1231,38.13-5.0921,57.037Z"/>
    <rect x="1163.2168" y="659.9668" width="1.5996" height="23.6191"/>
    <ellipse cx="1164.0165" cy="697.3873" rx="10.4139" ry="16.104"/>
    <path class="cls-8" d="M1173.8803,702.5218c-1.3872,6.3733-5.2748,10.9695-9.8639,10.9695-4.461,0-8.2559-4.3459-9.7392-10.4424,6.3644-2.2125,14.2842-3.0721,19.6031-.5271Z"/>
    <g>
      <path class="cls-11" d="M1195.8221,961.5103c0,12.4837,0,24.9674,0,37.4512,0,14.8638-1.5173,30.6682.9145,45.3329.8622,5.1994,2.7296,12.3023-.7934,16.9353-3.6222,4.7633-12.489,4.6338-17.8757,5.0416-7.4167.5614-13.4483-1.3146-13.4878-9.7315-.0354-7.5342,2.6614-87.1891,3.3023-98.4916"/>
      <path d="M1175.7549,1067.1631c-4.0605,0-7.0322-.9141-9.0459-2.7715-1.9277-1.7793-2.9131-4.4189-2.9297-7.8477-.0342-7.2988,2.6211-86.5,3.3037-98.541l1.5977.0898c-.6826,12.0322-3.3359,91.1553-3.3018,98.4434.0146,3.0088.8037,5.1934,2.415,6.6797,2.043,1.8857,5.3857,2.624,10.2129,2.2578.6768-.0508,1.4082-.0938,2.1768-.1387,5.1387-.3008,12.1758-.7139,15.123-4.5898,2.8945-3.8057,1.832-9.6787.9795-14.3965-.1201-.6631-.2363-1.3066-.3389-1.9238-1.7734-10.6963-1.46-22.0449-1.1562-33.0186.1143-4.1084.2314-8.3574.2314-12.4443v-37.4512h1.5996v37.4512c0,4.1094-.1182,8.3691-.2314,12.4883-.3018,10.8984-.6143,22.168,1.1348,32.7129.1006.6094.2158,1.2451.334,1.9004.9092,5.0273,2.041,11.2832-1.2793,15.6504-3.3926,4.4609-10.8545,4.8984-16.3027,5.2178-.7588.0439-1.4814.0869-2.1494.1377-.8291.0625-1.6201.0938-2.373.0938Z"/>
    </g>
    <g>
      <path class="cls-11" d="M1133.3364,961.5103v37.4512c0,14.8638,1.5173,30.6682-.9145,45.3329-.8622,5.1994-2.7296,12.3023.7934,16.9353,3.6222,4.7633,12.489,4.6338,17.8757,5.0416,7.4167.5614,13.4483-1.3146,13.4878-9.7315.0354-7.5342-2.6614-87.1891-3.3023-98.4916"/>
      <path d="M1153.4033,1067.1631c-.7529,0-1.5439-.0312-2.373-.0938-.668-.0508-1.3906-.0938-2.1494-.1377-5.4482-.3193-12.9092-.7568-16.3027-5.2178-3.3203-4.3672-2.1885-10.623-1.2793-15.6504.1182-.6553.2334-1.291.334-1.9004,1.749-10.5449,1.4365-21.8145,1.1348-32.7129-.1133-4.1191-.2314-8.3789-.2314-12.4883v-37.4512h1.5996v37.4512c0,4.0869.1172,8.3359.2314,12.4443.3037,10.9736.6172,22.3223-1.1562,33.0186-.1025.6172-.2188,1.2607-.3389,1.9238-.8525,4.7178-1.915,10.5908.9795,14.3965,2.9482,3.876,9.9844,4.2891,15.123,4.5898.7686.0449,1.5.0879,2.1768.1387,4.8291.3662,8.1699-.3721,10.2129-2.2578,1.6113-1.4863,2.4004-3.6709,2.415-6.6797.0342-7.2881-2.6191-86.4111-3.3018-98.4434l1.5977-.0898c.6826,12.041,3.3379,91.2422,3.3037,98.541-.0166,3.4287-1.002,6.0684-2.9297,7.8477-2.0137,1.8574-4.9863,2.7715-9.0459,2.7715Z"/>
    </g>
    <ellipse cx="1164.0165" cy="655.8848" rx="11.6299" ry="9.6475"/>
    <path d="M1189.5273,1065.7637c-.0879,0-.1768-.0146-.2646-.0459-.2949-.1035-7.1963-2.6729-5.3965-14.1494.0674-.4365.4756-.7393.9141-.666.4365.0684.7344.4775.666.9141-1.584,10.0996,4.1094,12.3057,4.3525,12.3945.4131.1514.6289.6084.4795,1.0225-.1172.3262-.4229.5303-.751.5303Z"/>
    <path d="M1177.3135,1065.7637c-.0879,0-.1768-.0146-.2646-.0459-.2949-.1035-7.1963-2.6729-5.3965-14.1494.0684-.4365.4785-.7393.9141-.666.4365.0684.7344.4775.666.9141-1.584,10.0996,4.1094,12.3057,4.3525,12.3945.4131.1514.6289.6084.4795,1.0225-.1172.3262-.4229.5303-.751.5303Z"/>
    <path d="M1139.1797,1065.7637c-.3301,0-.6387-.2051-.7539-.5342-.1465-.415.0703-.8701.4834-1.0186h0c.2432-.0889,5.9355-2.2949,4.3516-12.3945-.0684-.4365.2295-.8457.666-.9141.4365-.0742.8457.2295.9141.666,1.7998,11.4766-5.1006,14.0459-5.3955,14.1494-.0879.0312-.1777.0459-.2656.0459Z"/>
    <path d="M1151.3936,1065.7637c-.3301,0-.6387-.2051-.7539-.5342-.1465-.415.0703-.8701.4834-1.0186h0c.2432-.0889,5.9355-2.2949,4.3516-12.3945-.0684-.4365.2295-.8457.666-.9141.4385-.0742.8457.2295.9141.666,1.7998,11.4766-5.1006,14.0459-5.3955,14.1494-.0879.0312-.1777.0459-.2656.0459Z"/>
    <path class="cls-5" d="M1141.8243,793.6334c8.6797,1.142,35.4354,2.9108,40.1371,2.5561.2616-3.0009.5474-5.2052.9534-8.0191-13.5935.4435-27.6196.7287-41.0525-1.493.0349,2.2268.0269,4.5643-.0381,6.9561Z"/>
    <ellipse cx="1161.8156" cy="803.9647" rx="4.0943" ry="8.8296"/>
  </g>
</svg>